HIERARCHY
ROOT ui
{
	 OFFSET 0 0 0
	 CHANNELS 3 XPosition YPosition Z Position
	 EndSite
	 {
	 OFFSET 0 -1 0
	 }
}
ROOT li
{
	 OFFSET 0 0 0
	 CHANNELS 3 XPosition YPosition Z Position
	 EndSite
	 {
	 OFFSET 0 -1 0
	 }
}
ROOT ul
{
	 OFFSET 0 0 0
	 CHANNELS 3 XPosition YPosition Z Position
	 EndSite
	 {
	 OFFSET 0 -1 0
	 }
}
ROOT ll
{
	 OFFSET 0 0 0
	 CHANNELS 3 XPosition YPosition Z Position
	 EndSite
	 {
	 OFFSET 0 -1 0
	 }
}
ROOT tt
{
	 OFFSET 0 0 0
	 CHANNELS 3 XPosition YPosition Z Position
	 EndSite
	 {
	 OFFSET 0 -1 0
	 }
}
ROOT tb
{
	 OFFSET 0 0 0
	 CHANNELS 3 XPosition YPosition Z Position
	 EndSite
	 {
	 OFFSET 0 -1 0
	 }
}
ROOT td
{
	 OFFSET 0 0 0
	 CHANNELS 3 XPosition YPosition Z Position
	 EndSite
	 {
	 OFFSET 0 -1 0
	 }
}
ROOT v
{
	 OFFSET 0 0 0
	 CHANNELS 3 XPosition YPosition Z Position
	 EndSite
	 {
	 OFFSET 0 -1 0
	 }
}
ROOT bn
{
	 OFFSET 0 0 0
	 CHANNELS 3 XPosition YPosition Z Position
	 EndSite
	 {
	 OFFSET 0 -1 0
	 }
}
MOTION
Frames: 32
Frame Time: 0.002
-5.341590046882629E-4	-0.001726850986480713	0		0.5293483276367188	-2.579965576171875	0		-1.0638487548828126	0.04809328842163086	0		-0.5208375854492188	-2.9404228515625	0		1.6961077880859374	-0.6342385864257812	0		3.1975029296875	-0.026305328369140624	0		4.511892578125	0.2247106170654297	0		5.8535810546875	0.25641143798828125	0		-0.12633940887451173	5.98022021484375	0		
-7.267590165138245E-4	-0.0016945140361785888	0		0.4855704956054688	-2.55719140625	0		-1.0616785888671876	0.010064080238342285	0		-0.40951434326171876	-2.913260498046875	0		1.748152099609375	-0.6210519409179688	0		3.192428466796875	-0.019140186309814452	0		4.54065869140625	0.2223285675048828	0		5.84560107421875	0.25694512939453124	0		-0.2589754333496094	5.960462890625	0		
-0.003949152946472168	-0.004617343902587891	0		0.495301513671875	-2.56532373046875	0		-1.0681180419921874	-0.0058228979110717775	0		-0.5668681640625	-2.8656044921875	0		1.730476318359375	-0.5917017822265624	0		3.214420166015625	-0.009434325218200684	0		4.551798828125	0.24123760986328124	0		5.84915234375	0.2725685729980469	0		-0.2592387390136719	5.9604853515625	0		
0.00793098211288452	-0.0027973449230194094	0		0.510134765625	-2.5685458984375	0		-1.0704698486328126	-0.017782451629638672	0		-0.5147015991210937	-2.849462890625	0		1.786642822265625	-0.5735941772460937	0		3.26851171875	0.004728754043579101	0		4.58472265625	0.24577229309082033	0		5.86056298828125	0.28785693359375	0		-0.2774407653808594	5.96280322265625	0		
0.0028854479789733887	0.002301255941390991	0		0.49237698364257815	-2.548225341796875	0		-1.0827813720703126	-0.028579704284667967	0		-0.5989453125	-2.79804248046875	0		1.8059190673828125	-0.5498742065429687	0		3.2617001953125	0.02390395164489746	0		4.5997041015625	0.25260014343261716	0		5.8531259765625	0.25717831420898435	0		-0.2596889953613281	5.9605146484375	0		
0.0027778370380401613	0.0023129940032958984	0		0.48923828125	-2.55215625	0		-1.1031693115234376	-0.045246994018554684	0		-0.5637022705078125	-2.77962548828125	0		1.81626806640625	-0.5230081787109375	0		3.2804560546875	0.01564486312866211	0		4.61369140625	0.25844094848632815	0		5.8452060546875	0.25765618896484377	0		-0.2598788452148437	5.96052294921875	0		
-0.0013743610382080079	-0.0016110880374908447	0		0.479341064453125	-2.54297509765625	0		-1.1113868408203125	-0.05312009811401367	0		-0.605158447265625	-2.743929931640625	0		1.84943505859375	-0.5085248718261719	0		3.310515625	0.02420048713684082	0		4.64644677734375	0.24896865844726562	0		5.84514599609375	0.257820068359375	0		-0.12770409393310547	5.98032470703125	0		
-0.0014399709701538087	-0.001604688048362732	0		0.4911993103027344	-2.550159423828125	0		-1.10586865234375	-0.07822850036621094	0		-0.6085620727539063	-2.7068720703125	0		1.858759521484375	-0.48564083862304686	0		3.337645751953125	0.035810554504394534	0		4.66845751953125	0.25368505859375	0		5.8524580078125	0.2905765380859375	0		-0.29332867431640625	5.954080078125	0		
-0.0014862250089645386	-0.001599642038345337	0		0.46832205200195315	-2.542763427734375	0		-1.1059134521484375	-0.07824485778808593	0		-0.667948974609375	-2.669885986328125	0		1.8840184326171876	-0.4680179443359375	0		3.36364501953125	0.038447559356689455	0		4.69250244140625	0.2593807067871094	0		5.8637177734375	0.2730244140625	0		-0.29349038696289065	5.95407958984375	0		
0.002551909923553467	0.0023382470607757567	0		0.4854508666992188	-2.53703076171875	0		-1.122169677734375	-0.09199813842773437	0		-0.6275380859375	-2.647564208984375	0		1.92134521484375	-0.44758642578125	0		3.394695068359375	0.04301543807983398	0		4.71044970703125	0.2581962585449219	0		5.8602412109375	0.28898196411132815	0		-0.12721493530273437	5.9793173828125	0		
0.002541791915893555	0.0023443028926849363	0		0.45856634521484374	-2.533563720703125	0		-1.129292236328125	-0.09890703582763671	0		-0.668870361328125	-2.610884765625	0		1.974340576171875	-0.4484044189453125	0		3.42072998046875	0.045686473846435545	0		4.7304296875	0.25800457763671875	0		5.8524033203125	0.29132684326171876	0		-0.12739490509033202	5.9793193359375	0		
-0.0015172899961471557	-0.0015807720422744752	0		0.4835733642578125	-2.538952880859375	0		-1.1373968505859375	-0.10580419158935547	0		-0.655544677734375	-2.597116455078125	0		1.95862939453125	-0.43206637573242185	0		3.420735107421875	0.04581143569946289	0		4.748408203125	0.2568766479492188	0		5.84823828125	0.30742755126953125	0		-0.12759252166748047	5.9793232421875	0		
-0.001495239019393921	-0.0015697489976882935	0		0.458781982421875	-2.5335107421875	0		-1.1314541015625	-0.11093655395507812	0		-0.6741035766601563	-2.5778203125	0		2.0087772216796873	-0.4258037109375	0		3.448602783203125	0.036497314453125	0		4.7712685546875	0.24769769287109375	0		5.86739404296875	0.28978079223632813	0		-0.2791006774902344	5.96282373046875	0		
0.002606170892715454	0.0023787100315093993	0		0.4909918518066406	-2.530002685546875	0		-1.115530517578125	-0.11823422241210937	0		-0.7044881591796875	-2.549328857421875	0		2.0240440673828126	-0.41294839477539064	0		3.499893798828125	0.05182355499267578	0		4.7833740234375	0.2527259674072266	0		5.86326220703125	0.30772723388671874	0		-0.2773622131347656	5.9607939453125	0		
0.0026548409461975096	0.0023984379768371583	0		0.4672478942871094	-2.524566162109375	0		-1.13135888671875	-0.11100675964355469	0		-0.7002514038085937	-2.545409423828125	0		2.070352783203125	-0.398588134765625	0		3.501726318359375	0.038980785369873046	0		4.80929248046875	0.24555039978027343	0		5.84832373046875	0.308848388671875	0		-0.2454737548828125	5.96827392578125	0		
-0.001350255012512207	-0.0015104990005493165	0		0.4706009521484375	-2.514567626953125	0		-1.135358154296875	-0.11497406005859374	0		-0.7068632202148437	-2.5333076171875	0		2.118475830078125	-0.39624227905273435	0		3.501784423828125	0.039185981750488284	0		4.82322314453125	0.23859480285644533	0		5.84420849609375	0.32688156127929685	0		-0.12754051208496095	5.97835400390625	0		
-0.0012809749841690063	-0.001479846954345703	0		0.4516783447265625	-2.522200439453125	0		-1.1234473876953126	-0.12519912719726561	0		-0.70462451171875	-2.531347900390625	0		2.1387431640625	-0.3854244384765625	0		3.5246201171875	0.025033088684082033	0		4.8461298828125	0.22951277160644531	0		5.84842431640625	0.31001666259765626	0		-0.2942293701171875	5.95308837890625	0		
-0.0012042829990386963	-0.0014429340362548829	0		0.4539284057617187	-2.520171142578125	0		-1.1932733154296875	-0.1190882568359375	0		-0.7583340454101563	-2.5264736328125	0		2.190964599609375	-0.3781137390136719	0		3.5597880859375	0.03069790267944336	0		4.85416015625	0.2276913604736328	0		5.85632763671875	0.3103398132324219	0		-0.280325439453125	5.9628798828125	0		
-0.0011217830181121827	-0.001398959994316101	0		0.43127127075195315	-2.5127294921875	0		-1.19318408203125	-0.11911244201660157	0		-0.71706396484375	-2.52413720703125	0		2.234240966796875	-0.36764212036132815	0		3.569640869140625	0.016785398483276367	0		4.87811279296875	0.22062525939941408	0		5.86007177734375	0.3281551818847656	0		-0.28058395385742185	5.962908203125	0		
0.0030291740894317627	0.002588114023208618	0		0.4844162902832031	-2.5185068359375	0		-1.19309033203125	-0.11912944793701172	0		-0.746681640625	-2.5146435546875	0		2.262684326171875	-0.3469148254394531	0		3.59672314453125	0.016609020233154297	0		4.88716943359375	0.2198153076171875	0		5.85229296875	0.3291429443359375	0		-0.1285884704589844	5.9774892578125	0		
-9.447960257530213E-4	-0.0012853399515151977	0		0.4546253662109375	-2.519934326171875	0		-1.123082763671875	-0.12526235198974608	0		-0.7064175415039062	-2.51326904296875	0		2.291662353515625	-0.35518603515625	0		3.627679443359375	0.008383709907531739	0		4.9019072265625	0.19892439270019532	0		5.85788330078125	0.3019450378417969	0		-0.261200927734375	5.95666845703125	0		
-0.0057723078727722164	0.0038660359382629394	0		0.4439779052734375	-2.512660400390625	0		-1.1910391845703125	-0.12816635131835938	0		-0.778089599609375	-2.507085693359375	0		2.31196435546875	-0.34330194091796873	0		3.623691162109375	0.0037324979305267333	0		4.916857421875	0.1910437469482422	0		5.8524306640625	0.33056256103515624	0		-0.2614574890136719	5.95672509765625	0		
-7.60653018951416E-4	-0.0011301900148391723	0		0.4551021728515625	-2.519726318359375	0		-1.1868760986328124	-0.12421619415283203	0		-0.7398573608398438	-2.50765380859375	0		2.322043212890625	-0.3452445373535156	0		3.63354248046875	-0.011132707595825195	0		4.92979296875	0.18220455932617188	0		5.8603447265625	0.3309895324707031	0		-0.2786590576171875	5.96006396484375	0		
0.0033949069976806643	0.0029007411003112793	0		0.4423226013183594	-2.520398681640625	0		-1.2446739501953126	-0.11726652526855469	0		-0.792537109375	-2.50175830078125	0		2.34921533203125	-0.34144818115234377	0		3.6757734375	-0.0025014660358428954	0		4.94784130859375	0.1802920684814453	0		5.85991650390625	0.3646223449707031	0		-0.26274627685546875	5.9698876953125	0		
0.003486851930618286	0.0030080389976501463	0		0.449774169921875	-2.5063798828125	0		-1.168600830078125	-0.11943212127685547	0		-0.7692470703125	-2.498059814453125	0		2.349326171875	-0.34121200561523435	0		3.668692138671875	-0.013080065727233886	0		4.95358984375	0.15957859802246094	0		5.86184228515625	0.3220401306152344	0		-0.24504783630371094	5.96569580078125	0		
-4.849269986152649E-4	-8.092030286788941E-4	0		0.41998684692382815	-2.506762939453125	0		-1.178486328125	-0.11821772003173828	0		-0.7731012573242187	-2.502918212890625	0		2.337673828125	-0.3257801513671875	0		3.682576904296875	-0.02598503875732422	0		4.96367138671875	0.15980369567871094	0		5.86975537109375	0.32248834228515627	0		-0.26044677734375	5.95503955078125	0		
-3.961159884929657E-4	-6.791790127754212E-4	0		0.4471546936035156	-2.510035888671875	0		-1.1824381103515624	-0.12108528900146484	0		-0.7749142456054687	-2.50479638671875	0		2.343668701171875	-0.33262277221679687	0		3.705427978515625	-0.04102473068237305	0		4.98249755859375	0.14389335632324218	0		5.8522734375	0.3671665954589844	0		-0.27483746337890624	5.9443779296875	0		
-0.0033577120304107665	-0.0034912331104278564	0		0.4204163818359375	-2.50644970703125	0		-1.2483544921875	-0.12096837615966796	0		-0.8106517333984375	-2.501130126953125	0		2.360878173828125	-0.325632080078125	0		3.7167177734375	-0.027872150421142577	0		5.00032177734375	0.12800386047363282	0		5.86988671875	0.32399713134765623	0		-0.2788153381347656	5.95956591796875	0		
-2.3075799643993377E-4	-3.881019949913025E-4	0		0.46050537109375	-2.5139033203125	0		-1.244206298828125	-0.11694219207763672	0		-0.7955130004882812	-2.505253662109375	0		2.36992626953125	-0.3285058898925781	0		3.727563232421875	-0.042709156036376955	0		5.00039599609375	0.12840017700195314	0		5.8621015625	0.3250567626953125	0		-0.22881509399414063	5.9729189453125	0		
-1.561869978904724E-4	-2.2742800414562225E-4	0		0.4248775939941406	-2.50216015625	0		-1.240079833984375	-0.11390451049804687	0		-0.7593682861328125	-2.5086923828125	0		2.37409423828125	-0.3232934265136719	0		3.752636962890625	-0.0427578239440918	0		5.0063701171875	0.12271019744873046	0		5.85245263671875	0.369450439453125	0		-0.22902981567382813	5.973068359375	0		
-8.784600347280502E-5	-5.636100098490715E-5	0		0.4479545593261719	-2.509325439453125	0		-1.2400059814453126	-0.11379302978515625	0		-0.7991901245117188	-2.508935791015625	0		2.37417822265625	-0.3230082397460938	0		3.770580810546875	-0.05068527984619141	0		5.03005615234375	0.09875164031982422	0		5.86221044921875	0.3266134033203125	0		-0.24441775512695313	5.962462890625	0		
-0.003072293996810913	-0.00282759690284729	0		0.4191398010253906	-2.508672607421875	0		-1.23401708984375	-0.11876285552978516	0		-0.7650899658203125	-2.514318603515625	0		2.37017822265625	-0.3276501159667969	0		3.76347509765625	-0.06121311569213867	0		5.03500390625	0.09209761047363281	0		5.8701025390625	0.32712054443359373	0		-0.2588102111816406	5.9518515625	0		
